<svg viewBox="0 0 128 170" fill="none" xmlns="http://www.w3.org/2000/svg">
<path d="M4.78125 130.086V129.219H18.3984V130.086H17.25C15.9531 130.086 15.0078 130.469 14.4141 131.234C14.0391 131.734 13.8516 132.938 13.8516 134.844V150.383C13.8516 152.773 13.5859 154.711 13.0547 156.195C12.5391 157.68 11.6406 158.977 10.3594 160.086C9.07812 161.18 7.53125 161.727 5.71875 161.727C4.25 161.727 3.09375 161.367 2.25 160.648C1.40625 159.914 0.984375 159.078 0.984375 158.141C0.984375 157.375 1.17969 156.797 1.57031 156.406C2.08594 155.922 2.6875 155.68 3.375 155.68C3.875 155.68 4.32031 155.844 4.71094 156.172C5.11719 156.5 5.625 157.375 6.23438 158.797C6.59375 159.641 7.05469 160.062 7.61719 160.062C8.03906 160.062 8.42969 159.805 8.78906 159.289C9.16406 158.773 9.35156 157.859 9.35156 156.547V134.844C9.35156 133.234 9.25 132.172 9.04688 131.656C8.89062 131.266 8.5625 130.93 8.0625 130.648C7.39062 130.273 6.67969 130.086 5.92969 130.086H4.78125ZM52.7812 129.219V130.086C51.6562 130.289 50.8047 130.648 50.2266 131.164C49.3984 131.93 48.6641 133.102 48.0234 134.68L36.9375 161.727H36.0703L24.1641 134.328C23.5547 132.922 23.125 132.062 22.875 131.75C22.4844 131.266 22 130.891 21.4219 130.625C20.8594 130.344 20.0938 130.164 19.125 130.086V129.219H32.1094V130.086C30.6406 130.227 29.6875 130.477 29.25 130.836C28.8125 131.195 28.5938 131.656 28.5938 132.219C28.5938 133 28.9531 134.219 29.6719 135.875L37.7578 154.508L45.2578 136.109C45.9922 134.297 46.3594 133.039 46.3594 132.336C46.3594 131.883 46.1328 131.453 45.6797 131.047C45.2266 130.625 44.4609 130.328 43.3828 130.156C43.3047 130.141 43.1719 130.117 42.9844 130.086V129.219H52.7812ZM79.7578 129.219L79.875 136.648H78.9609C78.8984 135.148 78.5781 133.945 78 133.039C77.4219 132.133 76.7109 131.562 75.8672 131.328C75.0391 131.078 73.8359 130.953 72.2578 130.953H63.3516V155.211C63.3516 157.305 63.6172 158.633 64.1484 159.195C64.6953 159.758 65.9453 160.07 67.8984 160.133V161H54.2578V160.133C56.2266 160.07 57.4844 159.758 58.0312 159.195C58.5781 158.633 58.8516 157.305 58.8516 155.211V135.008C58.8516 132.914 58.5781 131.586 58.0312 131.023C57.4844 130.461 56.2266 130.148 54.2578 130.086V129.219H79.7578ZM95.9531 160.133V161H82.3359V160.133H83.4609C84.7734 160.133 85.7266 159.75 86.3203 158.984C86.6953 158.484 86.8828 157.281 86.8828 155.375V134.844C86.8828 133.234 86.7812 132.172 86.5781 131.656C86.4219 131.266 86.1016 130.93 85.6172 130.648C84.9297 130.273 84.2109 130.086 83.4609 130.086H82.3359V129.219H95.9531V130.086H94.8047C93.5078 130.086 92.5625 130.469 91.9688 131.234C91.5781 131.734 91.3828 132.938 91.3828 134.844V155.375C91.3828 156.984 91.4844 158.047 91.6875 158.562C91.8438 158.953 92.1719 159.289 92.6719 159.57C93.3438 159.945 94.0547 160.133 94.8047 160.133H95.9531ZM98.1094 129.219H121.617L122.273 137.164H121.383C121.055 135.258 120.688 133.961 120.281 133.273C119.891 132.57 119.312 132.039 118.547 131.68C117.797 131.305 116.578 131.117 114.891 131.117H104.719L125.109 160.133V161H99.2344L97.7344 152.586L98.5078 152.445C99.3359 155.117 100.281 156.891 101.344 157.766C102.422 158.641 103.961 159.078 105.961 159.078H118.992L98.1094 129.219Z" fill="#8E8E8E"/>
<path d="M4.78125 130.086H4.28125V130.586H4.78125V130.086ZM4.78125 129.219V128.719H4.28125V129.219H4.78125ZM18.3984 129.219H18.8984V128.719H18.3984V129.219ZM18.3984 130.086V130.586H18.8984V130.086H18.3984ZM14.4141 131.234L14.0189 130.928L14.0141 130.934L14.4141 131.234ZM13.0547 156.195L12.5839 156.027L12.5824 156.031L13.0547 156.195ZM10.3594 160.086L10.684 160.466L10.6867 160.464L10.3594 160.086ZM2.25 160.648L1.92172 161.026L1.92577 161.029L2.25 160.648ZM1.57031 156.406L1.22797 156.042L1.22228 156.047L1.21676 156.053L1.57031 156.406ZM4.71094 156.172L4.38928 156.555L4.39677 156.561L4.71094 156.172ZM6.23438 158.797L6.69439 158.601L6.69395 158.6L6.23438 158.797ZM8.78906 159.289L8.38461 158.995L8.37886 159.003L8.78906 159.289ZM9.04688 131.656L9.51209 131.473L9.51111 131.471L9.04688 131.656ZM8.0625 130.648L8.30763 130.213L8.30618 130.212L8.0625 130.648ZM5.28125 130.086V129.219H4.28125V130.086H5.28125ZM4.78125 129.719H18.3984V128.719H4.78125V129.719ZM17.8984 129.219V130.086H18.8984V129.219H17.8984ZM18.3984 129.586H17.25V130.586H18.3984V129.586ZM17.25 129.586C15.8549 129.586 14.7373 130.002 14.019 130.928L14.8092 131.541C15.2784 130.936 16.0513 130.586 17.25 130.586V129.586ZM14.0141 130.934C13.7498 131.287 13.5947 131.815 13.4982 132.435C13.3989 133.072 13.3516 133.878 13.3516 134.844H14.3516C14.3516 133.904 14.398 133.155 14.4862 132.589C14.5772 132.005 14.7034 131.682 14.8141 131.534L14.0141 130.934ZM13.3516 134.844V150.383H14.3516V134.844H13.3516ZM13.3516 150.383C13.3516 152.743 13.0885 154.617 12.5839 156.027L13.5254 156.364C14.0833 154.805 14.3516 152.804 14.3516 150.383H13.3516ZM12.5824 156.031C12.0978 157.426 11.2525 158.651 10.0321 159.708L10.6867 160.464C12.0288 159.302 12.9804 157.933 13.527 156.359L12.5824 156.031ZM10.0347 159.706C8.85116 160.716 7.422 161.227 5.71875 161.227V162.227C7.6405 162.227 9.30509 161.643 10.684 160.466L10.0347 159.706ZM5.71875 161.227C4.32975 161.227 3.30166 160.887 2.57423 160.268L1.92577 161.029C2.88584 161.847 4.17025 162.227 5.71875 162.227V161.227ZM2.57826 160.271C1.8205 159.612 1.48438 158.905 1.48438 158.141H0.484375C0.484375 159.251 0.992001 160.216 1.92174 161.026L2.57826 160.271ZM1.48438 158.141C1.48438 157.455 1.65836 157.025 1.92387 156.76L1.21676 156.053C0.701012 156.568 0.484375 157.295 0.484375 158.141H1.48438ZM1.91265 156.771C2.33854 156.371 2.81874 156.18 3.375 156.18V155.18C2.55626 155.18 1.83333 155.473 1.22797 156.042L1.91265 156.771ZM3.375 156.18C3.75477 156.18 4.0868 156.301 4.38934 156.555L5.03253 155.789C4.55383 155.387 3.99523 155.18 3.375 155.18V156.18ZM4.39677 156.561C4.52627 156.665 4.71757 156.901 4.96404 157.325C5.20402 157.739 5.47438 158.293 5.7748 158.994L6.69395 158.6C6.385 157.879 6.09676 157.285 5.82893 156.823C5.56759 156.373 5.30186 156.006 5.02511 155.783L4.39677 156.561ZM5.77436 158.993C6.15744 159.892 6.74412 160.562 7.61719 160.562V159.562C7.36525 159.562 7.03006 159.389 6.69439 158.601L5.77436 158.993ZM7.61719 160.562C8.27186 160.562 8.79462 160.156 9.19926 159.575L8.37886 159.003C8.06476 159.454 7.80627 159.562 7.61719 159.562V160.562ZM9.19343 159.583C9.66874 158.93 9.85156 157.873 9.85156 156.547H8.85156C8.85156 157.846 8.65938 158.617 8.38469 158.995L9.19343 159.583ZM9.85156 156.547V134.844H8.85156V156.547H9.85156ZM9.85156 134.844C9.85156 134.03 9.82597 133.345 9.77312 132.792C9.7212 132.249 9.64003 131.798 9.51208 131.473L8.58167 131.84C8.65685 132.03 8.72802 132.368 8.77766 132.887C8.82638 133.397 8.85156 134.048 8.85156 134.844H9.85156ZM9.51111 131.471C9.29937 130.941 8.87113 130.53 8.30763 130.213L7.81737 131.084C8.25387 131.33 8.48188 131.59 8.58264 131.842L9.51111 131.471ZM8.30618 130.212C7.56183 129.796 6.76727 129.586 5.92969 129.586V130.586C6.5921 130.586 7.21942 130.75 7.81882 131.085L8.30618 130.212ZM5.92969 129.586H4.78125V130.586H5.92969V129.586ZM52.7812 129.219H53.2812V128.719H52.7812V129.219ZM52.7812 130.086L52.8701 130.578L53.2812 130.504V130.086H52.7812ZM50.2266 131.164L49.8937 130.791L49.8871 130.797L50.2266 131.164ZM48.0234 134.68L48.4861 134.869L48.4867 134.868L48.0234 134.68ZM36.9375 161.727V162.227H37.2729L37.4001 161.916L36.9375 161.727ZM36.0703 161.727L35.6117 161.926L35.7424 162.227H36.0703V161.727ZM24.1641 134.328L23.7053 134.527L23.7055 134.527L24.1641 134.328ZM22.875 131.75L23.2654 131.438L23.2642 131.436L22.875 131.75ZM21.4219 130.625L21.1983 131.072L21.2056 131.076L21.2131 131.079L21.4219 130.625ZM19.125 130.086H18.625V130.547L19.0848 130.584L19.125 130.086ZM19.125 129.219V128.719H18.625V129.219H19.125ZM32.1094 129.219H32.6094V128.719H32.1094V129.219ZM32.1094 130.086L32.157 130.584L32.6094 130.54V130.086H32.1094ZM37.7578 154.508L37.2991 154.707L37.7722 155.797L38.2208 154.697L37.7578 154.508ZM45.2578 136.109L45.7208 136.298L45.7212 136.297L45.2578 136.109ZM45.6797 131.047L45.3389 131.413L45.3459 131.419L45.6797 131.047ZM43.3828 130.156L43.2848 130.647L43.2944 130.648L43.3041 130.65L43.3828 130.156ZM42.9844 130.086H42.4844V130.51L42.9022 130.579L42.9844 130.086ZM42.9844 129.219V128.719H42.4844V129.219H42.9844ZM52.2812 129.219V130.086H53.2812V129.219H52.2812ZM52.6924 129.594C51.5171 129.806 50.566 130.191 49.8938 130.791L50.5594 131.537C51.0434 131.106 51.7954 130.772 52.8701 130.578L52.6924 129.594ZM49.8871 130.797C48.9847 131.631 48.2156 132.877 47.5602 134.492L48.4867 134.868C49.1125 133.326 49.8122 132.228 50.566 131.531L49.8871 130.797ZM47.5608 134.49L36.4749 161.537L37.4001 161.916L48.4861 134.869L47.5608 134.49ZM36.9375 161.227H36.0703V162.227H36.9375V161.227ZM36.5289 161.527L24.6226 134.129L23.7055 134.527L35.6117 161.926L36.5289 161.527ZM24.6228 134.129C24.3164 133.422 24.0526 132.846 23.832 132.405C23.6171 131.976 23.4269 131.64 23.2654 131.438L22.4846 132.062C22.5731 132.173 22.7227 132.423 22.9376 132.853C23.1467 133.271 23.4024 133.828 23.7053 134.527L24.6228 134.129ZM23.2642 131.436C22.824 130.89 22.2773 130.468 21.6306 130.171L21.2131 131.079C21.7227 131.313 22.1448 131.641 22.4858 132.064L23.2642 131.436ZM21.6455 130.178C21.0032 129.857 20.1667 129.668 19.1652 129.588L19.0848 130.584C20.0208 130.66 20.7156 130.831 21.1983 131.072L21.6455 130.178ZM19.625 130.086V129.219H18.625V130.086H19.625ZM19.125 129.719H32.1094V128.719H19.125V129.719ZM31.6094 129.219V130.086H32.6094V129.219H31.6094ZM32.0617 129.588C31.3124 129.66 30.678 129.761 30.1661 129.895C29.664 130.027 29.2341 130.202 28.9326 130.45L29.5674 131.222C29.7034 131.111 29.9688 130.981 30.4198 130.863C30.861 130.747 31.4376 130.653 32.157 130.584L32.0617 129.588ZM28.9326 130.45C28.3804 130.903 28.0938 131.505 28.0938 132.219H29.0938C29.0938 131.807 29.2446 131.487 29.5674 131.222L28.9326 130.45ZM28.0938 132.219C28.0938 133.113 28.4938 134.416 29.2132 136.074L30.1305 135.676C29.4125 134.021 29.0938 132.887 29.0938 132.219H28.0938ZM29.2132 136.074L37.2991 154.707L38.2165 154.309L30.1305 135.676L29.2132 136.074ZM38.2208 154.697L45.7208 136.298L44.7948 135.921L37.2948 154.319L38.2208 154.697ZM45.7212 136.297C46.092 135.382 46.374 134.598 46.5639 133.947C46.7515 133.304 46.8594 132.76 46.8594 132.336H45.8594C45.8594 132.615 45.7837 133.051 45.604 133.667C45.4268 134.274 45.158 135.024 44.7944 135.922L45.7212 136.297ZM46.8594 132.336C46.8594 131.697 46.5343 131.142 46.0135 130.675L45.3459 131.419C45.7313 131.765 45.8594 132.069 45.8594 132.336H46.8594ZM46.0204 130.681C45.4577 130.157 44.572 129.84 43.4615 129.662L43.3041 130.65C44.3498 130.817 44.9954 131.093 45.339 131.413L46.0204 130.681ZM43.4809 129.666C43.394 129.649 43.2541 129.624 43.0666 129.593L42.9022 130.579C43.0896 130.61 43.2153 130.633 43.2848 130.647L43.4809 129.666ZM43.4844 130.086V129.219H42.4844V130.086H43.4844ZM42.9844 129.719H52.7812V128.719H42.9844V129.719ZM79.7578 129.219L80.2578 129.211L80.25 128.719H79.7578V129.219ZM79.875 136.648V137.148H80.3829L80.3749 136.641L79.875 136.648ZM78.9609 136.648L78.4614 136.669L78.4813 137.148H78.9609V136.648ZM75.8672 131.328L75.7226 131.807L75.7334 131.81L75.8672 131.328ZM63.3516 130.953V130.453H62.8516V130.953H63.3516ZM64.1484 159.195L63.7849 159.539L63.7899 159.544L64.1484 159.195ZM67.8984 160.133H68.3984V159.649L67.9144 159.633L67.8984 160.133ZM67.8984 161V161.5H68.3984V161H67.8984ZM54.2578 161H53.7578V161.5H54.2578V161ZM54.2578 160.133L54.2419 159.633L53.7578 159.648V160.133H54.2578ZM54.2578 130.086H53.7578V130.57L54.2419 130.586L54.2578 130.086ZM54.2578 129.219V128.719H53.7578V129.219H54.2578ZM79.2579 129.227L79.3751 136.656L80.3749 136.641L80.2578 129.211L79.2579 129.227ZM79.875 136.148H78.9609V137.148H79.875V136.148ZM79.4605 136.628C79.3957 135.073 79.0623 133.775 78.4215 132.77L77.5785 133.308C78.094 134.116 78.4012 135.224 78.4614 136.669L79.4605 136.628ZM78.4215 132.77C77.7928 131.785 76.9892 131.121 76.001 130.846L75.7334 131.81C76.4327 132.004 77.0509 132.481 77.5785 133.308L78.4215 132.77ZM76.0117 130.849C75.113 130.578 73.8516 130.453 72.2578 130.453V131.453C73.8202 131.453 74.9651 131.578 75.7227 131.807L76.0117 130.849ZM72.2578 130.453H63.3516V131.453H72.2578V130.453ZM62.8516 130.953V155.211H63.8516V130.953H62.8516ZM62.8516 155.211C62.8516 156.275 62.9187 157.167 63.0605 157.875C63.1996 158.571 63.4227 159.155 63.7849 159.539L64.5119 158.852C64.3429 158.673 64.1676 158.312 64.0411 157.679C63.9172 157.06 63.8516 156.241 63.8516 155.211H62.8516ZM63.7899 159.544C64.1575 159.922 64.7116 160.171 65.3748 160.337C66.0471 160.505 66.8866 160.601 67.8824 160.633L67.9144 159.633C66.9572 159.602 66.1951 159.511 65.6174 159.366C65.0306 159.22 64.6862 159.031 64.5069 158.847L63.7899 159.544ZM67.3984 160.133V161H68.3984V160.133H67.3984ZM67.8984 160.5H54.2578V161.5H67.8984V160.5ZM54.7578 161V160.133H53.7578V161H54.7578ZM54.2737 160.633C55.2772 160.601 56.1223 160.505 56.7983 160.337C57.4648 160.171 58.0216 159.922 58.3897 159.544L57.6728 158.847C57.494 159.031 57.1484 159.219 56.5572 159.366C55.9753 159.511 55.2072 159.602 54.2419 159.633L54.2737 160.633ZM58.3897 159.544C58.7623 159.161 58.9926 158.576 59.1362 157.878C59.2824 157.168 59.3516 156.276 59.3516 155.211H58.3516C58.3516 156.24 58.284 157.058 58.1568 157.677C58.0269 158.307 57.8471 158.667 57.6728 158.847L58.3897 159.544ZM59.3516 155.211V135.008H58.3516V155.211H59.3516ZM59.3516 135.008C59.3516 133.943 59.2824 133.051 59.1362 132.341C58.9926 131.643 58.7623 131.058 58.3897 130.675L57.6728 131.372C57.8471 131.551 58.0269 131.912 58.1568 132.542C58.284 133.16 58.3516 133.979 58.3516 135.008H59.3516ZM58.3897 130.675C58.0216 130.296 57.4648 130.048 56.7983 129.882C56.1223 129.714 55.2772 129.618 54.2737 129.586L54.2419 130.586C55.2072 130.616 55.9753 130.708 56.5572 130.852C57.1484 130.999 57.494 131.188 57.6728 131.372L58.3897 130.675ZM54.7578 130.086V129.219H53.7578V130.086H54.7578ZM54.2578 129.719H79.7578V128.719H54.2578V129.719ZM95.9531 160.133H96.4531V159.633H95.9531V160.133ZM95.9531 161V161.5H96.4531V161H95.9531ZM82.3359 161H81.8359V161.5H82.3359V161ZM82.3359 160.133V159.633H81.8359V160.133H82.3359ZM86.3203 158.984L86.7155 159.291L86.7203 159.284L86.3203 158.984ZM86.5781 131.656L87.0433 131.473L87.0424 131.471L86.5781 131.656ZM85.6172 130.648L85.8683 130.216L85.8566 130.209L85.6172 130.648ZM82.3359 130.086H81.8359V130.586H82.3359V130.086ZM82.3359 129.219V128.719H81.8359V129.219H82.3359ZM95.9531 129.219H96.4531V128.719H95.9531V129.219ZM95.9531 130.086V130.586H96.4531V130.086H95.9531ZM91.9688 131.234L92.3628 131.542L92.3639 131.541L91.9688 131.234ZM91.6875 158.562L91.2223 158.746L91.2233 158.748L91.6875 158.562ZM92.6719 159.57L92.4267 160.006L92.4282 160.007L92.6719 159.57ZM95.4531 160.133V161H96.4531V160.133H95.4531ZM95.9531 160.5H82.3359V161.5H95.9531V160.5ZM82.8359 161V160.133H81.8359V161H82.8359ZM82.3359 160.633H83.4609V159.633H82.3359V160.633ZM83.4609 160.633C84.8692 160.633 85.996 160.218 86.7154 159.291L85.9252 158.678C85.4571 159.282 84.6776 159.633 83.4609 159.633V160.633ZM86.7203 159.284C86.9846 158.932 87.1397 158.403 87.2362 157.784C87.3355 157.147 87.3828 156.341 87.3828 155.375H86.3828C86.3828 156.315 86.3364 157.064 86.2482 157.63C86.1572 158.214 86.031 158.537 85.9203 158.684L86.7203 159.284ZM87.3828 155.375V134.844H86.3828V155.375H87.3828ZM87.3828 134.844C87.3828 134.03 87.3572 133.345 87.3044 132.792C87.2524 132.249 87.1713 131.798 87.0433 131.473L86.1129 131.84C86.1881 132.03 86.2593 132.368 86.3089 132.887C86.3576 133.397 86.3828 134.048 86.3828 134.844H87.3828ZM87.0424 131.471C86.8327 130.946 86.4173 130.535 85.8683 130.216L85.3661 131.081C85.7858 131.325 86.011 131.585 86.1139 131.842L87.0424 131.471ZM85.8566 130.209C85.099 129.796 84.2983 129.586 83.4609 129.586V130.586C84.1235 130.586 84.7603 130.751 85.3778 131.087L85.8566 130.209ZM83.4609 129.586H82.3359V130.586H83.4609V129.586ZM82.8359 130.086V129.219H81.8359V130.086H82.8359ZM82.3359 129.719H95.9531V128.719H82.3359V129.719ZM95.4531 129.219V130.086H96.4531V129.219H95.4531ZM95.9531 129.586H94.8047V130.586H95.9531V129.586ZM94.8047 129.586C93.4096 129.586 92.292 130.002 91.5736 130.928L92.3639 131.541C92.833 130.936 93.606 130.586 94.8047 130.586V129.586ZM91.5747 130.927C91.2988 131.28 91.1366 131.81 91.0358 132.432C90.9321 133.07 90.8828 133.877 90.8828 134.844H91.8828C91.8828 133.904 91.9312 133.156 92.0228 132.592C92.1173 132.01 92.248 131.689 92.3628 131.542L91.5747 130.927ZM90.8828 134.844V155.375H91.8828V134.844H90.8828ZM90.8828 155.375C90.8828 156.188 90.9084 156.874 90.9613 157.426C91.0132 157.97 91.0943 158.421 91.2223 158.746L92.1527 158.379C92.0775 158.188 92.0064 157.851 91.9567 157.331C91.908 156.822 91.8828 156.171 91.8828 155.375H90.8828ZM91.2233 158.748C91.435 159.278 91.8632 159.689 92.4267 160.006L92.917 159.135C92.4805 158.889 92.2525 158.629 92.1517 158.377L91.2233 158.748ZM92.4282 160.007C93.1725 160.422 93.9671 160.633 94.8047 160.633V159.633C94.1423 159.633 93.515 159.468 92.9156 159.134L92.4282 160.007ZM94.8047 160.633H95.9531V159.633H94.8047V160.633ZM98.1094 129.219V128.719H97.1495L97.6996 129.505L98.1094 129.219ZM121.617 129.219L122.115 129.178L122.078 128.719H121.617V129.219ZM122.273 137.164V137.664H122.816L122.772 137.123L122.273 137.164ZM121.383 137.164L120.89 137.249L120.962 137.664H121.383V137.164ZM120.281 133.273L119.844 133.516L119.851 133.528L120.281 133.273ZM118.547 131.68L118.323 132.127L118.334 132.132L118.547 131.68ZM104.719 131.117V130.617H103.756L104.31 131.405L104.719 131.117ZM125.109 160.133H125.609V159.975L125.518 159.845L125.109 160.133ZM125.109 161V161.5H125.609V161H125.109ZM99.2344 161L98.7421 161.088L98.8156 161.5H99.2344V161ZM97.7344 152.586L97.6449 152.094L97.1547 152.183L97.2421 152.674L97.7344 152.586ZM98.5078 152.445L98.9854 152.297L98.8542 151.874L98.4184 151.953L98.5078 152.445ZM101.344 157.766L101.026 158.152L101.029 158.154L101.344 157.766ZM118.992 159.078V159.578H119.952L119.402 158.792L118.992 159.078ZM98.1094 129.719H121.617V128.719H98.1094V129.719ZM121.119 129.26L121.775 137.205L122.772 137.123L122.115 129.178L121.119 129.26ZM122.273 136.664H121.383V137.664H122.273V136.664ZM121.876 137.079C121.548 135.175 121.17 133.794 120.712 133.019L119.851 133.528C120.205 134.128 120.562 135.341 120.89 137.249L121.876 137.079ZM120.718 133.031C120.274 132.231 119.615 131.629 118.759 131.227L118.334 132.132C119.01 132.45 119.507 132.91 119.844 133.516L120.718 133.031ZM118.77 131.232C117.911 130.803 116.592 130.617 114.891 130.617V131.617C116.564 131.617 117.683 131.807 118.323 132.127L118.77 131.232ZM114.891 130.617H104.719V131.617H114.891V130.617ZM104.31 131.405L124.7 160.42L125.518 159.845L105.128 130.83L104.31 131.405ZM124.609 160.133V161H125.609V160.133H124.609ZM125.109 160.5H99.2344V161.5H125.109V160.5ZM99.7266 160.912L98.2266 152.498L97.2421 152.674L98.7421 161.088L99.7266 160.912ZM97.8238 153.078L98.5973 152.937L98.4184 151.953L97.6449 152.094L97.8238 153.078ZM98.0302 152.593C98.8628 155.28 99.8429 157.177 101.026 158.152L101.662 157.38C100.72 156.604 99.8091 154.955 98.9854 152.297L98.0302 152.593ZM101.029 158.154C102.228 159.127 103.895 159.578 105.961 159.578V158.578C104.026 158.578 102.616 158.154 101.659 157.377L101.029 158.154ZM105.961 159.578H118.992V158.578H105.961V159.578ZM119.402 158.792L98.5191 128.932L97.6996 129.505L118.582 159.365L119.402 158.792Z" fill="#8E8E8E"/>
<path d="M62.6667 48.75C58.1743 55.949 55.7926 64.2643 55.7926 72.75C55.7926 81.2357 58.1743 89.551 62.6667 96.75M65.3334 48.75C69.8258 55.949 72.2075 64.2643 72.2075 72.75C72.2075 81.2357 69.8258 89.551 65.3334 96.75" stroke="#8E8E8E" stroke-width="2" stroke-linecap="round" stroke-linejoin="round"/>
<path d="M41.6 64.75H86.4M41.6 80.75H86.4M40 72.75C40 75.9017 40.6208 79.0226 41.8269 81.9344C43.033 84.8462 44.8008 87.492 47.0294 89.7206C49.258 91.9492 51.9038 93.717 54.8156 94.9231C57.7274 96.1292 60.8483 96.75 64 96.75C67.1517 96.75 70.2726 96.1292 73.1844 94.9231C76.0962 93.717 78.742 91.9492 80.9706 89.7206C83.1992 87.492 84.967 84.8462 86.1731 81.9344C87.3792 79.0226 88 75.9017 88 72.75C88 66.3848 85.4714 60.2803 80.9706 55.7794C76.4697 51.2786 70.3652 48.75 64 48.75C57.6348 48.75 51.5303 51.2786 47.0294 55.7794C42.5286 60.2803 40 66.3848 40 72.75Z" stroke="#8E8E8E" stroke-width="2" stroke-linecap="round" stroke-linejoin="round"/>
<path fill-rule="evenodd" clip-rule="evenodd" d="M13 33.75L64 6.54999L115 33.75H13ZM18.25 41.75V38.25H109.75V41.75H18.25ZM22.25 97.75V46.25H29.75V97.75H22.25ZM47.5835 53.9256V46.25H55.0835V49.3951C52.3134 50.4582 49.7797 52.0022 47.5835 53.9256ZM47.5835 91.8244V97.75H55.0835V96.3549C52.3134 95.2918 49.7797 93.7478 47.5835 91.8244ZM72.9165 96.3549V97.75H80.4165V91.8244C78.2203 93.7478 75.6866 95.2918 72.9165 96.3549ZM80.4165 53.9256V46.25H72.9165V49.3951C75.6866 50.4582 78.2203 52.0022 80.4165 53.9256ZM98.25 97.75V46.25H105.75V97.75H98.25ZM18.25 109.75V102.25H109.75V109.75H18.25ZM10.25 121.75V114.25H117.75V121.75H10.25Z" fill="#8E8E8E"/>
</svg>
